<svg xmlns="http://www.w3.org/2000/svg" width="1600" height="560" viewBox="0 0 1600 560">
<defs>
  <linearGradient id="bg" x1="0" y1="0" x2="0.6" y2="1">
    <stop offset="0" stop-color="#0B1F3A"/>
    <stop offset="1" stop-color="#12305C"/>
  </linearGradient>
  <linearGradient id="glow" x1="0" y1="0" x2="1" y2="1">
    <stop offset="0" stop-color="#B69258" stop-opacity="0.5"/>
    <stop offset="1" stop-color="#DCC391" stop-opacity="0.9"/>
  </linearGradient>
</defs>
<rect width="1600" height="560" fill="url(#bg)"/>
<line x1="0" y1="0" x2="0" y2="560" stroke="#B69258" stroke-opacity="0.06"/><line x1="80" y1="0" x2="80" y2="560" stroke="#B69258" stroke-opacity="0.06"/><line x1="160" y1="0" x2="160" y2="560" stroke="#B69258" stroke-opacity="0.06"/><line x1="240" y1="0" x2="240" y2="560" stroke="#B69258" stroke-opacity="0.06"/><line x1="320" y1="0" x2="320" y2="560" stroke="#B69258" stroke-opacity="0.06"/><line x1="400" y1="0" x2="400" y2="560" stroke="#B69258" stroke-opacity="0.06"/><line x1="480" y1="0" x2="480" y2="560" stroke="#B69258" stroke-opacity="0.06"/><line x1="560" y1="0" x2="560" y2="560" stroke="#B69258" stroke-opacity="0.06"/><line x1="640" y1="0" x2="640" y2="560" stroke="#B69258" stroke-opacity="0.06"/><line x1="720" y1="0" x2="720" y2="560" stroke="#B69258" stroke-opacity="0.06"/><line x1="800" y1="0" x2="800" y2="560" stroke="#B69258" stroke-opacity="0.06"/><line x1="880" y1="0" x2="880" y2="560" stroke="#B69258" stroke-opacity="0.06"/><line x1="960" y1="0" x2="960" y2="560" stroke="#B69258" stroke-opacity="0.06"/><line x1="1040" y1="0" x2="1040" y2="560" stroke="#B69258" stroke-opacity="0.06"/><line x1="1120" y1="0" x2="1120" y2="560" stroke="#B69258" stroke-opacity="0.06"/><line x1="1200" y1="0" x2="1200" y2="560" stroke="#B69258" stroke-opacity="0.06"/><line x1="1280" y1="0" x2="1280" y2="560" stroke="#B69258" stroke-opacity="0.06"/><line x1="1360" y1="0" x2="1360" y2="560" stroke="#B69258" stroke-opacity="0.06"/><line x1="1440" y1="0" x2="1440" y2="560" stroke="#B69258" stroke-opacity="0.06"/><line x1="1520" y1="0" x2="1520" y2="560" stroke="#B69258" stroke-opacity="0.06"/><line x1="1600" y1="0" x2="1600" y2="560" stroke="#B69258" stroke-opacity="0.06"/><line x1="0" y1="0" x2="1600" y2="0" stroke="#B69258" stroke-opacity="0.06"/><line x1="0" y1="80" x2="1600" y2="80" stroke="#B69258" stroke-opacity="0.06"/><line x1="0" y1="160" x2="1600" y2="160" stroke="#B69258" stroke-opacity="0.06"/><line x1="0" y1="240" x2="1600" y2="240" stroke="#B69258" stroke-opacity="0.06"/><line x1="0" y1="320" x2="1600" y2="320" stroke="#B69258" stroke-opacity="0.06"/><line x1="0" y1="400" x2="1600" y2="400" stroke="#B69258" stroke-opacity="0.06"/><line x1="0" y1="480" x2="1600" y2="480" stroke="#B69258" stroke-opacity="0.06"/><line x1="0" y1="560" x2="1600" y2="560" stroke="#B69258" stroke-opacity="0.06"/>
<g>
  <rect x="980" y="94" width="520" height="26" fill="#071426" opacity="0.85"/>
  <path d="M 946 94 L 1240 28 L 1534 94 Z" fill="#071426" opacity="0.85"/>
  <rect x="954" y="530" width="572" height="30" fill="#071426" opacity="0.85"/>
  <rect x="1029.8333333333333" y="120" width="44.2" height="410" fill="#071426" opacity="0.62"/>
             <rect x="1037.7893333333332" y="120" width="7.072000000000001" height="410" fill="#B69258" opacity="0.5"/><rect x="1123.8666666666666" y="120" width="44.2" height="410" fill="#071426" opacity="0.62"/>
             <rect x="1131.8226666666665" y="120" width="7.072000000000001" height="410" fill="#B69258" opacity="0.5"/><rect x="1217.8999999999999" y="120" width="44.2" height="410" fill="#071426" opacity="0.62"/>
             <rect x="1225.8559999999998" y="120" width="7.072000000000001" height="410" fill="#B69258" opacity="0.5"/><rect x="1311.9333333333334" y="120" width="44.2" height="410" fill="#071426" opacity="0.62"/>
             <rect x="1319.8893333333333" y="120" width="7.072000000000001" height="410" fill="#B69258" opacity="0.5"/><rect x="1405.9666666666667" y="120" width="44.2" height="410" fill="#071426" opacity="0.62"/>
             <rect x="1413.9226666666666" y="120" width="7.072000000000001" height="410" fill="#B69258" opacity="0.5"/>
  <line x1="980" y1="160" x2="1500" y2="160" stroke="#B69258" stroke-opacity="0.5"/>
</g>
<rect x="70" y="470" width="300" height="4" fill="#B69258"/>
<linearGradient id="vig" x1="0" y1="0" x2="0" y2="1">
  <stop offset="0" stop-color="#000" stop-opacity="0.32"/>
  <stop offset="0.45" stop-color="#000" stop-opacity="0"/>
  <stop offset="1" stop-color="#000" stop-opacity="0.55"/>
</linearGradient>
<rect width="1600" height="560" fill="url(#vig)"/>
</svg>